# xmcd
#
# Track frame offsets:
#	150
#	15666
#	32927
#	50134
#	65608
#	84153
#	104125
#	119997
#	142455
#	159203
#	174232
#	191494
#
# Disc length: 2736 seconds
#
# Revision: 2
# Processed by: cddbd v1.4PL0 Copyright (c) Steve Scherf et al.
# Submitted via: EasyCDDAExtractor 6.0.0.1
#
DISCID=b00aae0c
DTITLE=Coastline Band - Against All Flags
DYEAR=2003
DGENRE=Blues
TTITLE0=Sweat
TTITLE1=Tikki Bar Is Open
TTITLE2=I've Got To Stop Thinkin' Bout That
TTITLE3=Take Me Home
TTITLE4=Along For The Ride
TTITLE5=Somebody To Love You
TTITLE6=I Wish You Well
TTITLE7=Great Divide
TTITLE8=Won't Stop For Nothing
TTITLE9=Swamps Of The Old Santee
TTITLE10=Loveless
TTITLE11=Blow 'Em Away
EXTD=
EXTT0=
EXTT1=
EXTT2=
EXTT3=
EXTT4=
EXTT5=
EXTT6=
EXTT7=
EXTT8=
EXTT9=
EXTT10=
EXTT11=
PLAYORDER=
